<?xml version="1.0" encoding="UTF-8" standalone="no"?>
<!DOCTYPE svg PUBLIC "-//W3C//DTD SVG 1.1//EN" "http://www.w3.org/Graphics/SVG/1.1/DTD/svg11.dtd">
<!-- Generated by graphviz version 2.40.1 (20161225.0304)
 -->
<!-- Title: %0 Pages: 1 -->
<svg width="233pt" height="768pt" viewBox="0.00 0.00 233.26 767.54" xmlns="http://www.w3.org/2000/svg" xmlns:xlink="http://www.w3.org/1999/xlink">
<g id="graph0" class="graph" transform="scale(1 1) rotate(0) translate(4 763.5404)">
<title>%0</title>
<polygon fill="#ffffff" stroke="transparent" points="-4,4 -4,-763.5404 229.2582,-763.5404 229.2582,4 -4,4"/>
<!-- 0 -->
<g id="node1" class="node">
<title>0</title>
<ellipse fill="none" stroke="#000000" cx="132.2582" cy="-718.2454" rx="43.4168" ry="41.0911"/>
<text text-anchor="middle" x="132.2582" y="-730.8454" font-family="Times,serif" font-size="14.00" fill="#000000">id:0</text>
<text text-anchor="middle" x="132.2582" y="-714.0454" font-family="Times,serif" font-size="14.00" fill="#000000">disc:12</text>
<text text-anchor="middle" x="132.2582" y="-697.2454" font-family="Times,serif" font-size="14.00" fill="#000000">endp:15</text>
</g>
<!-- 4 -->
<g id="node2" class="node">
<title>4</title>
<ellipse fill="none" stroke="#000000" cx="77.2582" cy="-582.8553" rx="43.4168" ry="41.0911"/>
<text text-anchor="middle" x="77.2582" y="-595.4553" font-family="Times,serif" font-size="14.00" fill="#000000">id:4</text>
<text text-anchor="middle" x="77.2582" y="-578.6553" font-family="Times,serif" font-size="14.00" fill="#000000">disc:13</text>
<text text-anchor="middle" x="77.2582" y="-561.8553" font-family="Times,serif" font-size="14.00" fill="#000000">endp:14</text>
</g>
<!-- 0&#45;&gt;4 -->
<g id="edge1" class="edge">
<title>0-&gt;4</title>
<path fill="none" stroke="#000000" d="M104.2329,-686.4604C98.0731,-678.0112 92.2152,-668.5501 88.2582,-658.9504 85.0407,-651.1447 82.7416,-642.551 81.1035,-634.0352"/>
<polygon fill="#000000" stroke="#000000" points="84.5499,-633.4229 79.4688,-624.126 77.6433,-634.5623 84.5499,-633.4229"/>
<text text-anchor="middle" x="91.7582" y="-646.3504" font-family="Times,serif" font-size="14.00" fill="#000000">1</text>
</g>
<!-- 1 -->
<g id="node3" class="node">
<title>1</title>
<ellipse fill="none" stroke="#000000" cx="181.2582" cy="-582.8553" rx="43.4168" ry="41.0911"/>
<text text-anchor="middle" x="181.2582" y="-595.4553" font-family="Times,serif" font-size="14.00" fill="#000000">id:1</text>
<text text-anchor="middle" x="181.2582" y="-578.6553" font-family="Times,serif" font-size="14.00" fill="#000000">disc:1</text>
<text text-anchor="middle" x="181.2582" y="-561.8553" font-family="Times,serif" font-size="14.00" fill="#000000">endp:16</text>
</g>
<!-- 0&#45;&gt;1 -->
<g id="edge2" class="edge">
<title>0-&gt;1</title>
<path fill="none" stroke="#000000" d="M141.3811,-677.5005C144.397,-665.93 148.0693,-653.4174 152.2582,-642.1504 153.828,-637.9277 155.5997,-633.6037 157.474,-629.309"/>
<polygon fill="#000000" stroke="#000000" points="160.7514,-630.5567 161.703,-620.0046 154.3788,-627.6601 160.7514,-630.5567"/>
<text text-anchor="middle" x="155.7582" y="-646.3504" font-family="Times,serif" font-size="14.00" fill="#000000">1</text>
</g>
<!-- 4&#45;&gt;0 -->
<g id="edge11" class="edge">
<title>4-&gt;0</title>
<path fill="none" stroke="#000000" d="M93.0212,-621.6584C99.1201,-636.6715 106.167,-654.0185 112.5916,-669.8335"/>
<polygon fill="#000000" stroke="#000000" points="109.491,-671.5006 116.4974,-679.448 115.9763,-668.866 109.491,-671.5006"/>
<text text-anchor="middle" x="111.7582" y="-646.3504" font-family="Times,serif" font-size="14.00" fill="#000000">1</text>
</g>
<!-- 1&#45;&gt;0 -->
<g id="edge4" class="edge">
<title>1-&gt;0</title>
<path fill="none" stroke="#000000" d="M170.0918,-623.0413C166.584,-634.7178 162.509,-647.4263 158.2582,-658.9504 156.814,-662.8655 155.2419,-666.8921 153.6094,-670.9156"/>
<polygon fill="#000000" stroke="#000000" points="150.338,-669.6668 149.7221,-680.2438 156.7994,-672.3595 150.338,-669.6668"/>
<text text-anchor="middle" x="166.7582" y="-646.3504" font-family="Times,serif" font-size="14.00" fill="#000000">1</text>
</g>
<!-- 5 -->
<g id="node4" class="node">
<title>5</title>
<ellipse fill="none" stroke="#000000" cx="181.2582" cy="-447.4653" rx="43.4168" ry="41.0911"/>
<text text-anchor="middle" x="181.2582" y="-460.0653" font-family="Times,serif" font-size="14.00" fill="#000000">id:5</text>
<text text-anchor="middle" x="181.2582" y="-443.2653" font-family="Times,serif" font-size="14.00" fill="#000000">disc:2</text>
<text text-anchor="middle" x="181.2582" y="-426.4653" font-family="Times,serif" font-size="14.00" fill="#000000">endp:11</text>
</g>
<!-- 1&#45;&gt;5 -->
<g id="edge3" class="edge">
<title>1-&gt;5</title>
<path fill="none" stroke="#000000" d="M171.9738,-542.511C170.8462,-536.1995 169.8758,-529.7262 169.2582,-523.5603 168.415,-515.1432 168.721,-506.2403 169.6598,-497.6053"/>
<polygon fill="#000000" stroke="#000000" points="173.1357,-498.0186 171.0216,-487.6369 166.2002,-497.0711 173.1357,-498.0186"/>
<text text-anchor="middle" x="172.7582" y="-510.9603" font-family="Times,serif" font-size="14.00" fill="#000000">1</text>
</g>
<!-- 5&#45;&gt;1 -->
<g id="edge14" class="edge">
<title>5-&gt;1</title>
<path fill="none" stroke="#000000" d="M181.2582,-489.0357C181.2582,-502.4443 181.2582,-517.4681 181.2582,-531.4966"/>
<polygon fill="#000000" stroke="#000000" points="177.7583,-531.4981 181.2582,-541.4982 184.7583,-531.4982 177.7583,-531.4981"/>
<text text-anchor="middle" x="184.7582" y="-510.9603" font-family="Times,serif" font-size="14.00" fill="#000000">1</text>
</g>
<!-- 2 -->
<g id="node5" class="node">
<title>2</title>
<ellipse fill="none" stroke="#000000" cx="141.2582" cy="-41.295" rx="38.0178" ry="41.0911"/>
<text text-anchor="middle" x="141.2582" y="-53.895" font-family="Times,serif" font-size="14.00" fill="#000000">id:2</text>
<text text-anchor="middle" x="141.2582" y="-37.095" font-family="Times,serif" font-size="14.00" fill="#000000">disc:7</text>
<text text-anchor="middle" x="141.2582" y="-20.295" font-family="Times,serif" font-size="14.00" fill="#000000">endp:8</text>
</g>
<!-- 5&#45;&gt;2 -->
<g id="edge13" class="edge">
<title>5-&gt;2</title>
<path fill="none" stroke="#000000" d="M196.5866,-408.6417C198.7915,-401.9003 200.8025,-394.8946 202.2582,-388.1702 226.0286,-278.3634 224.3459,-245.1278 200.2582,-135.3901 195.8577,-115.3429 184.9161,-95.6988 173.6338,-79.5886"/>
<polygon fill="#000000" stroke="#000000" points="176.4565,-77.5191 167.7357,-71.5027 170.8012,-81.6444 176.4565,-77.5191"/>
<text text-anchor="middle" x="221.7582" y="-240.1801" font-family="Times,serif" font-size="14.00" fill="#000000">1</text>
</g>
<!-- 6 -->
<g id="node6" class="node">
<title>6</title>
<ellipse fill="none" stroke="#000000" cx="88.2582" cy="-312.0752" rx="43.4168" ry="41.0911"/>
<text text-anchor="middle" x="88.2582" y="-324.6752" font-family="Times,serif" font-size="14.00" fill="#000000">id:6</text>
<text text-anchor="middle" x="88.2582" y="-307.8752" font-family="Times,serif" font-size="14.00" fill="#000000">disc:3</text>
<text text-anchor="middle" x="88.2582" y="-291.0752" font-family="Times,serif" font-size="14.00" fill="#000000">endp:10</text>
</g>
<!-- 5&#45;&gt;6 -->
<g id="edge12" class="edge">
<title>5-&gt;6</title>
<path fill="none" stroke="#000000" d="M157.3083,-412.5989C145.2672,-395.0694 130.5643,-373.6647 117.8251,-355.119"/>
<polygon fill="#000000" stroke="#000000" points="120.6738,-353.0844 112.1268,-346.8233 114.9038,-357.0478 120.6738,-353.0844"/>
<text text-anchor="middle" x="144.7582" y="-375.5702" font-family="Times,serif" font-size="14.00" fill="#000000">1</text>
</g>
<!-- 2&#45;&gt;5 -->
<g id="edge6" class="edge">
<title>2-&gt;5</title>
<path fill="none" stroke="#000000" d="M161.0601,-76.8893C164.619,-84.5207 167.931,-92.6742 170.2582,-100.5901 202.0441,-208.7125 195.6294,-240.8005 190.2582,-353.3702 189.5975,-367.2162 188.393,-382.1693 187.0754,-395.9914"/>
<polygon fill="#000000" stroke="#000000" points="183.5568,-396.0072 186.053,-406.3038 190.5226,-396.6979 183.5568,-396.0072"/>
<text text-anchor="middle" x="197.7582" y="-240.1801" font-family="Times,serif" font-size="14.00" fill="#000000">1</text>
</g>
<!-- 2&#45;&gt;6 -->
<g id="edge5" class="edge">
<title>2-&gt;6</title>
<path fill="none" stroke="#000000" d="M151.0742,-81.558C159.7375,-125.3996 167.8239,-196.7442 145.2582,-252.7801 141.4976,-262.1183 135.4855,-270.8102 128.747,-278.5034"/>
<polygon fill="#000000" stroke="#000000" points="126.1341,-276.1727 121.823,-285.8508 131.2285,-280.9736 126.1341,-276.1727"/>
<text text-anchor="middle" x="163.7582" y="-172.4851" font-family="Times,serif" font-size="14.00" fill="#000000">1</text>
</g>
<!-- 3 -->
<g id="node7" class="node">
<title>3</title>
<ellipse fill="none" stroke="#000000" cx="57.2582" cy="-176.6851" rx="38.0178" ry="41.0911"/>
<text text-anchor="middle" x="57.2582" y="-189.2851" font-family="Times,serif" font-size="14.00" fill="#000000">id:3</text>
<text text-anchor="middle" x="57.2582" y="-172.4851" font-family="Times,serif" font-size="14.00" fill="#000000">disc:4</text>
<text text-anchor="middle" x="57.2582" y="-155.6851" font-family="Times,serif" font-size="14.00" fill="#000000">endp:9</text>
</g>
<!-- 2&#45;&gt;3 -->
<g id="edge7" class="edge">
<title>2-&gt;3</title>
<path fill="none" stroke="#000000" d="M110.6911,-66.7249C100.5143,-76.4552 89.8507,-88.2109 82.2582,-100.5901 77.3462,-108.5987 73.2856,-117.6803 69.9692,-126.7107"/>
<polygon fill="#000000" stroke="#000000" points="66.5677,-125.8418 66.6575,-136.4363 73.1941,-128.0982 66.5677,-125.8418"/>
<text text-anchor="middle" x="85.7582" y="-104.7901" font-family="Times,serif" font-size="14.00" fill="#000000">1</text>
</g>
<!-- 6&#45;&gt;5 -->
<g id="edge17" class="edge">
<title>6-&gt;5</title>
<path fill="none" stroke="#000000" d="M100.2461,-352.0428C104.864,-364.2059 110.8491,-377.2378 118.2582,-388.1702 124.4516,-397.309 132.2818,-406.0879 140.2985,-413.9602"/>
<polygon fill="#000000" stroke="#000000" points="137.9968,-416.6006 147.6715,-420.9194 142.8017,-411.5101 137.9968,-416.6006"/>
<text text-anchor="middle" x="121.7582" y="-375.5702" font-family="Times,serif" font-size="14.00" fill="#000000">1</text>
</g>
<!-- 6&#45;&gt;2 -->
<g id="edge19" class="edge">
<title>6-&gt;2</title>
<path fill="none" stroke="#000000" d="M96.2502,-271.2435C105.6305,-223.319 121.1903,-143.8227 131.3347,-91.9947"/>
<polygon fill="#000000" stroke="#000000" points="134.8018,-92.5017 133.2879,-82.0156 127.9321,-91.157 134.8018,-92.5017"/>
<text text-anchor="middle" x="126.7582" y="-172.4851" font-family="Times,serif" font-size="14.00" fill="#000000">1</text>
</g>
<!-- 6&#45;&gt;6 -->
<g id="edge15" class="edge">
<title>6-&gt;6</title>
<path fill="none" stroke="#000000" d="M131.1605,-318.166C141.6557,-317.7148 149.4661,-315.6846 149.4661,-312.0752 149.4661,-309.7629 146.2607,-308.0987 141.1975,-307.0826"/>
<polygon fill="#000000" stroke="#000000" points="141.4819,-303.5929 131.1605,-305.9844 140.7204,-310.5514 141.4819,-303.5929"/>
<text text-anchor="middle" x="152.9661" y="-307.8752" font-family="Times,serif" font-size="14.00" fill="#000000">1</text>
</g>
<!-- 6&#45;&gt;6 -->
<g id="edge16" class="edge">
<title>6-&gt;6</title>
<path fill="none" stroke="#000000" d="M129.824,-324.1481C149.817,-325.6385 167.4661,-321.6142 167.4661,-312.0752 167.4661,-304.1756 155.3625,-300.0581 139.8475,-299.7225"/>
<polygon fill="#000000" stroke="#000000" points="139.7224,-296.2245 129.824,-300.0023 139.9178,-303.2218 139.7224,-296.2245"/>
<text text-anchor="middle" x="170.9661" y="-307.8752" font-family="Times,serif" font-size="14.00" fill="#000000">1</text>
</g>
<!-- 6&#45;&gt;3 -->
<g id="edge18" class="edge">
<title>6-&gt;3</title>
<path fill="none" stroke="#000000" d="M78.9571,-271.4537C75.7402,-257.4042 72.0968,-241.4919 68.7267,-226.7731"/>
<polygon fill="#000000" stroke="#000000" points="72.0895,-225.7779 66.4458,-216.8114 65.2661,-227.3403 72.0895,-225.7779"/>
<text text-anchor="middle" x="78.7582" y="-240.1801" font-family="Times,serif" font-size="14.00" fill="#000000">1</text>
</g>
<!-- 3&#45;&gt;2 -->
<g id="edge10" class="edge">
<title>3-&gt;2</title>
<path fill="none" stroke="#000000" d="M78.6722,-142.1702C89.5824,-124.5854 102.9547,-103.0321 114.5337,-84.3692"/>
<polygon fill="#000000" stroke="#000000" points="117.5852,-86.0896 119.8832,-75.747 111.637,-82.3991 117.5852,-86.0896"/>
<text text-anchor="middle" x="108.7582" y="-104.7901" font-family="Times,serif" font-size="14.00" fill="#000000">1</text>
</g>
<!-- 3&#45;&gt;6 -->
<g id="edge9" class="edge">
<title>3-&gt;6</title>
<path fill="none" stroke="#000000" d="M55.8902,-218.1771C56.3258,-229.5253 57.5522,-241.7366 60.2582,-252.7801 61.3232,-257.127 62.7215,-261.5371 64.3255,-265.8886"/>
<polygon fill="#000000" stroke="#000000" points="61.1257,-267.3121 68.1161,-275.2736 67.6163,-264.6905 61.1257,-267.3121"/>
<text text-anchor="middle" x="63.7582" y="-240.1801" font-family="Times,serif" font-size="14.00" fill="#000000">1</text>
</g>
<!-- 7 -->
<g id="node8" class="node">
<title>7</title>
<ellipse fill="none" stroke="#000000" cx="38.2582" cy="-41.295" rx="38.0178" ry="41.0911"/>
<text text-anchor="middle" x="38.2582" y="-53.895" font-family="Times,serif" font-size="14.00" fill="#000000">id:7</text>
<text text-anchor="middle" x="38.2582" y="-37.095" font-family="Times,serif" font-size="14.00" fill="#000000">disc:5</text>
<text text-anchor="middle" x="38.2582" y="-20.295" font-family="Times,serif" font-size="14.00" fill="#000000">endp:6</text>
</g>
<!-- 3&#45;&gt;7 -->
<g id="edge8" class="edge">
<title>3-&gt;7</title>
<path fill="none" stroke="#000000" d="M51.506,-135.6962C49.59,-122.0432 47.4317,-106.6641 45.4222,-92.3445"/>
<polygon fill="#000000" stroke="#000000" points="48.8466,-91.5611 43.9908,-82.1446 41.9146,-92.534 48.8466,-91.5611"/>
<text text-anchor="middle" x="52.7582" y="-104.7901" font-family="Times,serif" font-size="14.00" fill="#000000">1</text>
</g>
<!-- 7&#45;&gt;3 -->
<g id="edge20" class="edge">
<title>7-&gt;3</title>
<path fill="none" stroke="#000000" d="M34.2371,-82.5786C33.9273,-93.9259 34.3332,-106.1889 36.2582,-117.3901 36.9258,-121.2749 37.8226,-125.2429 38.8707,-129.1935"/>
<polygon fill="#000000" stroke="#000000" points="35.5542,-130.3212 41.7432,-138.9203 42.2675,-128.3385 35.5542,-130.3212"/>
<text text-anchor="middle" x="39.7582" y="-104.7901" font-family="Times,serif" font-size="14.00" fill="#000000">1</text>
</g>
</g>
</svg>