<?xml version="1.0" encoding="UTF-8" standalone="no"?>
<!DOCTYPE svg PUBLIC "-//W3C//DTD SVG 1.1//EN" "http://www.w3.org/Graphics/SVG/1.1/DTD/svg11.dtd">
<!-- Generated by graphviz version 2.40.1 (20161225.0304)
 -->
<!-- Title: %0 Pages: 1 -->
<svg width="276pt" height="497pt" viewBox="0.00 0.00 276.47 496.76" xmlns="http://www.w3.org/2000/svg" xmlns:xlink="http://www.w3.org/1999/xlink">
<g id="graph0" class="graph" transform="scale(1 1) rotate(0) translate(4 492.7603)">
<title>%0</title>
<polygon fill="#ffffff" stroke="transparent" points="-4,4 -4,-492.7603 272.4661,-492.7603 272.4661,4 -4,4"/>
<!-- 0 -->
<g id="node1" class="node">
<title>0</title>
<ellipse fill="none" stroke="#000000" cx="93.2582" cy="-447.4653" rx="38.0178" ry="41.0911"/>
<text text-anchor="middle" x="93.2582" y="-460.0653" font-family="Times,serif" font-size="14.00" fill="#000000">id:0</text>
<text text-anchor="middle" x="93.2582" y="-443.2653" font-family="Times,serif" font-size="14.00" fill="#000000">disc:7</text>
<text text-anchor="middle" x="93.2582" y="-426.4653" font-family="Times,serif" font-size="14.00" fill="#000000">endp:8</text>
</g>
<!-- 3 -->
<g id="node2" class="node">
<title>3</title>
<ellipse fill="none" stroke="#000000" cx="38.2582" cy="-312.0752" rx="38.0178" ry="41.0911"/>
<text text-anchor="middle" x="38.2582" y="-324.6752" font-family="Times,serif" font-size="14.00" fill="#000000">id:3</text>
<text text-anchor="middle" x="38.2582" y="-307.8752" font-family="Times,serif" font-size="14.00" fill="#000000">disc:3</text>
<text text-anchor="middle" x="38.2582" y="-291.0752" font-family="Times,serif" font-size="14.00" fill="#000000">endp:4</text>
</g>
<!-- 0&#45;&gt;3 -->
<g id="edge1" class="edge">
<title>0-&gt;3</title>
<path fill="none" stroke="#000000" d="M77.7912,-409.3913C71.5231,-393.9613 64.216,-375.9739 57.6012,-359.6907"/>
<polygon fill="#000000" stroke="#000000" points="60.8059,-358.2799 53.7996,-350.3325 54.3206,-360.9145 60.8059,-358.2799"/>
<text text-anchor="middle" x="72.7582" y="-375.5702" font-family="Times,serif" font-size="14.00" fill="#000000">1</text>
</g>
<!-- 1 -->
<g id="node3" class="node">
<title>1</title>
<ellipse fill="none" stroke="#000000" cx="101.2582" cy="-176.6851" rx="38.0178" ry="41.0911"/>
<text text-anchor="middle" x="101.2582" y="-189.2851" font-family="Times,serif" font-size="14.00" fill="#000000">id:1</text>
<text text-anchor="middle" x="101.2582" y="-172.4851" font-family="Times,serif" font-size="14.00" fill="#000000">disc:1</text>
<text text-anchor="middle" x="101.2582" y="-155.6851" font-family="Times,serif" font-size="14.00" fill="#000000">endp:6</text>
</g>
<!-- 0&#45;&gt;1 -->
<g id="edge2" class="edge">
<title>0-&gt;1</title>
<path fill="none" stroke="#000000" d="M94.4819,-406.0448C95.8905,-358.3655 98.2056,-280.0056 99.7311,-228.373"/>
<polygon fill="#000000" stroke="#000000" points="103.2376,-228.2 100.0346,-218.1009 96.2407,-227.9932 103.2376,-228.2"/>
<text text-anchor="middle" x="101.7582" y="-307.8752" font-family="Times,serif" font-size="14.00" fill="#000000">1</text>
</g>
<!-- 3&#45;&gt;1 -->
<g id="edge6" class="edge">
<title>3-&gt;1</title>
<path fill="none" stroke="#000000" d="M55.4732,-275.0792C62.9736,-258.9605 71.8449,-239.8956 79.7719,-222.8601"/>
<polygon fill="#000000" stroke="#000000" points="83.0183,-224.1794 84.0639,-213.6363 76.6718,-221.2262 83.0183,-224.1794"/>
<text text-anchor="middle" x="77.7582" y="-240.1801" font-family="Times,serif" font-size="14.00" fill="#000000">1</text>
</g>
<!-- 4 -->
<g id="node4" class="node">
<title>4</title>
<ellipse fill="none" stroke="#000000" cx="101.2582" cy="-41.295" rx="38.0178" ry="41.0911"/>
<text text-anchor="middle" x="101.2582" y="-53.895" font-family="Times,serif" font-size="14.00" fill="#000000">id:4</text>
<text text-anchor="middle" x="101.2582" y="-37.095" font-family="Times,serif" font-size="14.00" fill="#000000">disc:2</text>
<text text-anchor="middle" x="101.2582" y="-20.295" font-family="Times,serif" font-size="14.00" fill="#000000">endp:5</text>
</g>
<!-- 1&#45;&gt;4 -->
<g id="edge3" class="edge">
<title>1-&gt;4</title>
<path fill="none" stroke="#000000" d="M101.2582,-135.328C101.2582,-121.9366 101.2582,-106.9161 101.2582,-92.8772"/>
<polygon fill="#000000" stroke="#000000" points="104.7583,-92.8654 101.2582,-82.8655 97.7583,-92.8655 104.7583,-92.8654"/>
<text text-anchor="middle" x="104.7582" y="-104.7901" font-family="Times,serif" font-size="14.00" fill="#000000">1</text>
</g>
<!-- 4&#45;&gt;3 -->
<g id="edge7" class="edge">
<title>4-&gt;3</title>
<path fill="none" stroke="#000000" d="M77.4085,-73.9568C66.1018,-91.3083 53.6865,-113.5252 47.2582,-135.3901 35.2334,-176.2901 33.6022,-224.7783 34.629,-260.6032"/>
<polygon fill="#000000" stroke="#000000" points="31.1395,-260.9575 35.0033,-270.8227 38.1349,-260.7012 31.1395,-260.9575"/>
<text text-anchor="middle" x="50.7582" y="-172.4851" font-family="Times,serif" font-size="14.00" fill="#000000">1</text>
</g>
<!-- 2 -->
<g id="node5" class="node">
<title>2</title>
<ellipse fill="none" stroke="#000000" cx="200.2582" cy="-176.6851" rx="43.4168" ry="41.0911"/>
<text text-anchor="middle" x="200.2582" y="-189.2851" font-family="Times,serif" font-size="14.00" fill="#000000">id:2</text>
<text text-anchor="middle" x="200.2582" y="-172.4851" font-family="Times,serif" font-size="14.00" fill="#000000">disc:9</text>
<text text-anchor="middle" x="200.2582" y="-155.6851" font-family="Times,serif" font-size="14.00" fill="#000000">endp:12</text>
</g>
<!-- 2&#45;&gt;4 -->
<g id="edge4" class="edge">
<title>2-&gt;4</title>
<path fill="none" stroke="#000000" d="M175.2763,-142.5205C161.9038,-124.2326 145.3375,-101.5769 131.2701,-82.3386"/>
<polygon fill="#000000" stroke="#000000" points="133.9354,-80.0539 125.2075,-74.0476 128.2848,-84.1857 133.9354,-80.0539"/>
<text text-anchor="middle" x="159.7582" y="-104.7901" font-family="Times,serif" font-size="14.00" fill="#000000">1</text>
</g>
<!-- 5 -->
<g id="node6" class="node">
<title>5</title>
<ellipse fill="none" stroke="#000000" cx="200.2582" cy="-41.295" rx="43.4168" ry="41.0911"/>
<text text-anchor="middle" x="200.2582" y="-53.895" font-family="Times,serif" font-size="14.00" fill="#000000">id:5</text>
<text text-anchor="middle" x="200.2582" y="-37.095" font-family="Times,serif" font-size="14.00" fill="#000000">disc:10</text>
<text text-anchor="middle" x="200.2582" y="-20.295" font-family="Times,serif" font-size="14.00" fill="#000000">endp:11</text>
</g>
<!-- 2&#45;&gt;5 -->
<g id="edge5" class="edge">
<title>2-&gt;5</title>
<path fill="none" stroke="#000000" d="M200.2582,-135.328C200.2582,-121.9366 200.2582,-106.9161 200.2582,-92.8772"/>
<polygon fill="#000000" stroke="#000000" points="203.7583,-92.8654 200.2582,-82.8655 196.7583,-92.8655 203.7583,-92.8654"/>
<text text-anchor="middle" x="203.7582" y="-104.7901" font-family="Times,serif" font-size="14.00" fill="#000000">1</text>
</g>
<!-- 5&#45;&gt;5 -->
<g id="edge8" class="edge">
<title>5-&gt;5</title>
<path fill="none" stroke="#000000" d="M241.7393,-53.5786C252.9428,-52.9306 261.4661,-48.8361 261.4661,-41.295 261.4661,-36.2284 257.6185,-32.7176 251.6956,-30.7626"/>
<polygon fill="#000000" stroke="#000000" points="252.1944,-27.2967 241.7393,-29.0114 250.9818,-34.1908 252.1944,-27.2967"/>
<text text-anchor="middle" x="264.9661" y="-37.095" font-family="Times,serif" font-size="14.00" fill="#000000">1</text>
</g>
</g>
</svg>