<?xml version="1.0" encoding="UTF-8" standalone="no"?>
<!DOCTYPE svg PUBLIC "-//W3C//DTD SVG 1.1//EN" "http://www.w3.org/Graphics/SVG/1.1/DTD/svg11.dtd">
<!-- Generated by graphviz version 2.40.1 (20161225.0304)
 -->
<!-- Title: %0 Pages: 1 -->
<svg width="283pt" height="632pt" viewBox="0.00 0.00 283.47 632.15" xmlns="http://www.w3.org/2000/svg" xmlns:xlink="http://www.w3.org/1999/xlink">
<g id="graph0" class="graph" transform="scale(1 1) rotate(0) translate(4 628.1504)">
<title>%0</title>
<polygon fill="#ffffff" stroke="transparent" points="-4,4 -4,-628.1504 279.4661,-628.1504 279.4661,4 -4,4"/>
<!-- 0 -->
<g id="node1" class="node">
<title>0</title>
<ellipse fill="none" stroke="#000000" cx="133.2582" cy="-582.8553" rx="43.4168" ry="41.0911"/>
<text text-anchor="middle" x="133.2582" y="-595.4553" font-family="Times,serif" font-size="14.00" fill="#000000">id:0</text>
<text text-anchor="middle" x="133.2582" y="-578.6553" font-family="Times,serif" font-size="14.00" fill="#000000">disc:13</text>
<text text-anchor="middle" x="133.2582" y="-561.8553" font-family="Times,serif" font-size="14.00" fill="#000000">endp:14</text>
</g>
<!-- 1 -->
<g id="node2" class="node">
<title>1</title>
<ellipse fill="none" stroke="#000000" cx="133.2582" cy="-447.4653" rx="43.4168" ry="41.0911"/>
<text text-anchor="middle" x="133.2582" y="-460.0653" font-family="Times,serif" font-size="14.00" fill="#000000">id:1</text>
<text text-anchor="middle" x="133.2582" y="-443.2653" font-family="Times,serif" font-size="14.00" fill="#000000">disc:1</text>
<text text-anchor="middle" x="133.2582" y="-426.4653" font-family="Times,serif" font-size="14.00" fill="#000000">endp:12</text>
</g>
<!-- 0&#45;&gt;1 -->
<g id="edge1" class="edge">
<title>0-&gt;1</title>
<path fill="none" stroke="#000000" d="M133.2582,-541.4982C133.2582,-528.1068 133.2582,-513.0863 133.2582,-499.0474"/>
<polygon fill="#000000" stroke="#000000" points="136.7583,-499.0356 133.2582,-489.0357 129.7583,-499.0357 136.7583,-499.0356"/>
<text text-anchor="middle" x="136.7582" y="-510.9603" font-family="Times,serif" font-size="14.00" fill="#000000">2</text>
</g>
<!-- 4 -->
<g id="node3" class="node">
<title>4</title>
<ellipse fill="none" stroke="#000000" cx="38.2582" cy="-312.0752" rx="38.0178" ry="41.0911"/>
<text text-anchor="middle" x="38.2582" y="-324.6752" font-family="Times,serif" font-size="14.00" fill="#000000">id:4</text>
<text text-anchor="middle" x="38.2582" y="-307.8752" font-family="Times,serif" font-size="14.00" fill="#000000">disc:2</text>
<text text-anchor="middle" x="38.2582" y="-291.0752" font-family="Times,serif" font-size="14.00" fill="#000000">endp:7</text>
</g>
<!-- 1&#45;&gt;4 -->
<g id="edge2" class="edge">
<title>1-&gt;4</title>
<path fill="none" stroke="#000000" d="M109.0398,-412.9503C96.302,-394.7969 80.5966,-372.4142 67.2185,-353.3482"/>
<polygon fill="#000000" stroke="#000000" points="70.0583,-351.3018 61.4493,-345.1263 64.3282,-355.3225 70.0583,-351.3018"/>
<text text-anchor="middle" x="95.7582" y="-375.5702" font-family="Times,serif" font-size="14.00" fill="#000000">2</text>
</g>
<!-- 3 -->
<g id="node4" class="node">
<title>3</title>
<ellipse fill="none" stroke="#000000" cx="133.2582" cy="-312.0752" rx="38.0178" ry="41.0911"/>
<text text-anchor="middle" x="133.2582" y="-324.6752" font-family="Times,serif" font-size="14.00" fill="#000000">id:3</text>
<text text-anchor="middle" x="133.2582" y="-307.8752" font-family="Times,serif" font-size="14.00" fill="#000000">disc:8</text>
<text text-anchor="middle" x="133.2582" y="-291.0752" font-family="Times,serif" font-size="14.00" fill="#000000">endp:9</text>
</g>
<!-- 1&#45;&gt;3 -->
<g id="edge3" class="edge">
<title>1-&gt;3</title>
<path fill="none" stroke="#000000" d="M133.2582,-406.1081C133.2582,-392.7167 133.2582,-377.6962 133.2582,-363.6573"/>
<polygon fill="#000000" stroke="#000000" points="136.7583,-363.6456 133.2582,-353.6456 129.7583,-363.6456 136.7583,-363.6456"/>
<text text-anchor="middle" x="136.7582" y="-375.5702" font-family="Times,serif" font-size="14.00" fill="#000000">3</text>
</g>
<!-- 2 -->
<g id="node5" class="node">
<title>2</title>
<ellipse fill="none" stroke="#000000" cx="232.2582" cy="-312.0752" rx="43.4168" ry="41.0911"/>
<text text-anchor="middle" x="232.2582" y="-324.6752" font-family="Times,serif" font-size="14.00" fill="#000000">id:2</text>
<text text-anchor="middle" x="232.2582" y="-307.8752" font-family="Times,serif" font-size="14.00" fill="#000000">disc:10</text>
<text text-anchor="middle" x="232.2582" y="-291.0752" font-family="Times,serif" font-size="14.00" fill="#000000">endp:11</text>
</g>
<!-- 1&#45;&gt;2 -->
<g id="edge4" class="edge">
<title>1-&gt;2</title>
<path fill="none" stroke="#000000" d="M158.24,-413.3006C171.3131,-395.4222 187.4386,-373.3693 201.2977,-354.416"/>
<polygon fill="#000000" stroke="#000000" points="204.207,-356.367 207.2843,-346.2289 198.5564,-352.2352 204.207,-356.367"/>
<text text-anchor="middle" x="192.7582" y="-375.5702" font-family="Times,serif" font-size="14.00" fill="#000000">2</text>
</g>
<!-- 5 -->
<g id="node6" class="node">
<title>5</title>
<ellipse fill="none" stroke="#000000" cx="133.2582" cy="-176.6851" rx="38.0178" ry="41.0911"/>
<text text-anchor="middle" x="133.2582" y="-189.2851" font-family="Times,serif" font-size="14.00" fill="#000000">id:5</text>
<text text-anchor="middle" x="133.2582" y="-172.4851" font-family="Times,serif" font-size="14.00" fill="#000000">disc:3</text>
<text text-anchor="middle" x="133.2582" y="-155.6851" font-family="Times,serif" font-size="14.00" fill="#000000">endp:6</text>
</g>
<!-- 4&#45;&gt;5 -->
<g id="edge7" class="edge">
<title>4-&gt;5</title>
<path fill="none" stroke="#000000" d="M61.4978,-278.955C74.3216,-260.6791 90.3702,-237.8073 104.0367,-218.3304"/>
<polygon fill="#000000" stroke="#000000" points="107.0504,-220.1288 109.9292,-209.9326 101.3203,-216.1081 107.0504,-220.1288"/>
<text text-anchor="middle" x="95.7582" y="-240.1801" font-family="Times,serif" font-size="14.00" fill="#000000">1</text>
</g>
<!-- 3&#45;&gt;5 -->
<g id="edge6" class="edge">
<title>3-&gt;5</title>
<path fill="none" stroke="#000000" d="M133.2582,-270.718C133.2582,-257.3266 133.2582,-242.3061 133.2582,-228.2672"/>
<polygon fill="#000000" stroke="#000000" points="136.7583,-228.2555 133.2582,-218.2555 129.7583,-228.2556 136.7583,-228.2555"/>
<text text-anchor="middle" x="136.7582" y="-240.1801" font-family="Times,serif" font-size="14.00" fill="#000000">3</text>
</g>
<!-- 2&#45;&gt;5 -->
<g id="edge5" class="edge">
<title>2-&gt;5</title>
<path fill="none" stroke="#000000" d="M207.2763,-277.9105C193.9038,-259.6227 177.3375,-236.967 163.2701,-217.7287"/>
<polygon fill="#000000" stroke="#000000" points="165.9354,-215.444 157.2075,-209.4377 160.2848,-219.5758 165.9354,-215.444"/>
<text text-anchor="middle" x="192.7582" y="-240.1801" font-family="Times,serif" font-size="14.00" fill="#000000">2</text>
</g>
<!-- 6 -->
<g id="node7" class="node">
<title>6</title>
<ellipse fill="none" stroke="#000000" cx="133.2582" cy="-41.295" rx="38.0178" ry="41.0911"/>
<text text-anchor="middle" x="133.2582" y="-53.895" font-family="Times,serif" font-size="14.00" fill="#000000">id:6</text>
<text text-anchor="middle" x="133.2582" y="-37.095" font-family="Times,serif" font-size="14.00" fill="#000000">disc:4</text>
<text text-anchor="middle" x="133.2582" y="-20.295" font-family="Times,serif" font-size="14.00" fill="#000000">endp:5</text>
</g>
<!-- 5&#45;&gt;6 -->
<g id="edge8" class="edge">
<title>5-&gt;6</title>
<path fill="none" stroke="#000000" d="M133.2582,-135.328C133.2582,-121.9366 133.2582,-106.9161 133.2582,-92.8772"/>
<polygon fill="#000000" stroke="#000000" points="136.7583,-92.8654 133.2582,-82.8655 129.7583,-92.8655 136.7583,-92.8654"/>
<text text-anchor="middle" x="136.7582" y="-104.7901" font-family="Times,serif" font-size="14.00" fill="#000000">2</text>
</g>
</g>
</svg>