<?xml version="1.0" encoding="UTF-8" standalone="no"?>
<!DOCTYPE svg PUBLIC "-//W3C//DTD SVG 1.1//EN" "http://www.w3.org/Graphics/SVG/1.1/DTD/svg11.dtd">
<!-- Generated by graphviz version 2.40.1 (20161225.0304)
 -->
<!-- Title: %0 Pages: 1 -->
<svg width="333pt" height="632pt" viewBox="0.00 0.00 333.47 632.15" xmlns="http://www.w3.org/2000/svg" xmlns:xlink="http://www.w3.org/1999/xlink">
<g id="graph0" class="graph" transform="scale(1 1) rotate(0) translate(4 628.1504)">
<title>%0</title>
<polygon fill="#ffffff" stroke="transparent" points="-4,4 -4,-628.1504 329.4661,-628.1504 329.4661,4 -4,4"/>
<!-- 0 -->
<g id="node1" class="node">
<title>0</title>
<ellipse fill="none" stroke="#000000" cx="119.2582" cy="-582.8553" rx="43.4168" ry="41.0911"/>
<text text-anchor="middle" x="119.2582" y="-595.4553" font-family="Times,serif" font-size="14.00" fill="#000000">id:0</text>
<text text-anchor="middle" x="119.2582" y="-578.6553" font-family="Times,serif" font-size="14.00" fill="#000000">disc:13</text>
<text text-anchor="middle" x="119.2582" y="-561.8553" font-family="Times,serif" font-size="14.00" fill="#000000">endp:14</text>
</g>
<!-- 1 -->
<g id="node2" class="node">
<title>1</title>
<ellipse fill="none" stroke="#000000" cx="119.2582" cy="-447.4653" rx="43.4168" ry="41.0911"/>
<text text-anchor="middle" x="119.2582" y="-460.0653" font-family="Times,serif" font-size="14.00" fill="#000000">id:1</text>
<text text-anchor="middle" x="119.2582" y="-443.2653" font-family="Times,serif" font-size="14.00" fill="#000000">disc:1</text>
<text text-anchor="middle" x="119.2582" y="-426.4653" font-family="Times,serif" font-size="14.00" fill="#000000">endp:12</text>
</g>
<!-- 0&#45;&gt;1 -->
<g id="edge1" class="edge">
<title>0-&gt;1</title>
<path fill="none" stroke="#000000" d="M119.2582,-541.4982C119.2582,-528.1068 119.2582,-513.0863 119.2582,-499.0474"/>
<polygon fill="#000000" stroke="#000000" points="122.7583,-499.0356 119.2582,-489.0357 115.7583,-499.0357 122.7583,-499.0356"/>
<text text-anchor="middle" x="122.7582" y="-510.9603" font-family="Times,serif" font-size="14.00" fill="#000000">2</text>
</g>
<!-- 6 -->
<g id="node3" class="node">
<title>6</title>
<ellipse fill="none" stroke="#000000" cx="38.2582" cy="-41.295" rx="38.0178" ry="41.0911"/>
<text text-anchor="middle" x="38.2582" y="-53.895" font-family="Times,serif" font-size="14.00" fill="#000000">id:6</text>
<text text-anchor="middle" x="38.2582" y="-37.095" font-family="Times,serif" font-size="14.00" fill="#000000">disc:2</text>
<text text-anchor="middle" x="38.2582" y="-20.295" font-family="Times,serif" font-size="14.00" fill="#000000">endp:3</text>
</g>
<!-- 1&#45;&gt;6 -->
<g id="edge2" class="edge">
<title>1-&gt;6</title>
<path fill="none" stroke="#000000" d="M87.2598,-419.5467C70.0937,-402.3993 50.5937,-378.8755 41.2582,-353.3702 9.2387,-265.8913 18.8744,-155.1544 28.6565,-91.8562"/>
<polygon fill="#000000" stroke="#000000" points="32.1514,-92.1671 30.2844,-81.7381 25.2403,-91.0551 32.1514,-92.1671"/>
<text text-anchor="middle" x="28.2582" y="-240.1801" font-family="Times,serif" font-size="14.00" fill="#000000">10</text>
</g>
<!-- 4 -->
<g id="node4" class="node">
<title>4</title>
<ellipse fill="none" stroke="#000000" cx="88.2582" cy="-312.0752" rx="38.0178" ry="41.0911"/>
<text text-anchor="middle" x="88.2582" y="-324.6752" font-family="Times,serif" font-size="14.00" fill="#000000">id:4</text>
<text text-anchor="middle" x="88.2582" y="-307.8752" font-family="Times,serif" font-size="14.00" fill="#000000">disc:4</text>
<text text-anchor="middle" x="88.2582" y="-291.0752" font-family="Times,serif" font-size="14.00" fill="#000000">endp:7</text>
</g>
<!-- 1&#45;&gt;4 -->
<g id="edge3" class="edge">
<title>1-&gt;4</title>
<path fill="none" stroke="#000000" d="M109.9571,-406.8438C106.7402,-392.7942 103.0968,-376.882 99.7267,-362.1632"/>
<polygon fill="#000000" stroke="#000000" points="103.0895,-361.168 97.4458,-352.2014 96.2661,-362.7304 103.0895,-361.168"/>
<text text-anchor="middle" x="109.7582" y="-375.5702" font-family="Times,serif" font-size="14.00" fill="#000000">2</text>
</g>
<!-- 3 -->
<g id="node5" class="node">
<title>3</title>
<ellipse fill="none" stroke="#000000" cx="183.2582" cy="-312.0752" rx="38.0178" ry="41.0911"/>
<text text-anchor="middle" x="183.2582" y="-324.6752" font-family="Times,serif" font-size="14.00" fill="#000000">id:3</text>
<text text-anchor="middle" x="183.2582" y="-307.8752" font-family="Times,serif" font-size="14.00" fill="#000000">disc:8</text>
<text text-anchor="middle" x="183.2582" y="-291.0752" font-family="Times,serif" font-size="14.00" fill="#000000">endp:9</text>
</g>
<!-- 1&#45;&gt;3 -->
<g id="edge4" class="edge">
<title>1-&gt;3</title>
<path fill="none" stroke="#000000" d="M137.0857,-409.7516C144.6379,-393.7752 153.5099,-375.0068 161.4478,-358.2143"/>
<polygon fill="#000000" stroke="#000000" points="164.638,-359.6553 165.7474,-349.1187 158.3094,-356.6637 164.638,-359.6553"/>
<text text-anchor="middle" x="158.7582" y="-375.5702" font-family="Times,serif" font-size="14.00" fill="#000000">3</text>
</g>
<!-- 2 -->
<g id="node6" class="node">
<title>2</title>
<ellipse fill="none" stroke="#000000" cx="282.2582" cy="-312.0752" rx="43.4168" ry="41.0911"/>
<text text-anchor="middle" x="282.2582" y="-324.6752" font-family="Times,serif" font-size="14.00" fill="#000000">id:2</text>
<text text-anchor="middle" x="282.2582" y="-307.8752" font-family="Times,serif" font-size="14.00" fill="#000000">disc:10</text>
<text text-anchor="middle" x="282.2582" y="-291.0752" font-family="Times,serif" font-size="14.00" fill="#000000">endp:11</text>
</g>
<!-- 1&#45;&gt;2 -->
<g id="edge5" class="edge">
<title>1-&gt;2</title>
<path fill="none" stroke="#000000" d="M152.2436,-420.0671C178.0673,-398.6175 214.108,-368.6816 241.6956,-345.767"/>
<polygon fill="#000000" stroke="#000000" points="244.1441,-348.2832 249.6003,-339.2013 239.6714,-342.8984 244.1441,-348.2832"/>
<text text-anchor="middle" x="214.7582" y="-375.5702" font-family="Times,serif" font-size="14.00" fill="#000000">2</text>
</g>
<!-- 5 -->
<g id="node7" class="node">
<title>5</title>
<ellipse fill="none" stroke="#000000" cx="119.2582" cy="-176.6851" rx="38.0178" ry="41.0911"/>
<text text-anchor="middle" x="119.2582" y="-189.2851" font-family="Times,serif" font-size="14.00" fill="#000000">id:5</text>
<text text-anchor="middle" x="119.2582" y="-172.4851" font-family="Times,serif" font-size="14.00" fill="#000000">disc:5</text>
<text text-anchor="middle" x="119.2582" y="-155.6851" font-family="Times,serif" font-size="14.00" fill="#000000">endp:6</text>
</g>
<!-- 4&#45;&gt;5 -->
<g id="edge8" class="edge">
<title>4-&gt;5</title>
<path fill="none" stroke="#000000" d="M97.4752,-271.8203C100.6945,-257.7604 104.349,-241.7996 107.7326,-227.0222"/>
<polygon fill="#000000" stroke="#000000" points="111.2028,-227.5477 110.023,-217.0187 104.3793,-225.9853 111.2028,-227.5477"/>
<text text-anchor="middle" x="109.7582" y="-240.1801" font-family="Times,serif" font-size="14.00" fill="#000000">1</text>
</g>
<!-- 3&#45;&gt;5 -->
<g id="edge7" class="edge">
<title>3-&gt;5</title>
<path fill="none" stroke="#000000" d="M165.7699,-275.0792C158.1504,-258.9605 149.1383,-239.8956 141.0855,-222.8601"/>
<polygon fill="#000000" stroke="#000000" points="144.1633,-221.1813 136.7253,-213.6363 137.8347,-224.1729 144.1633,-221.1813"/>
<text text-anchor="middle" x="158.7582" y="-240.1801" font-family="Times,serif" font-size="14.00" fill="#000000">3</text>
</g>
<!-- 2&#45;&gt;5 -->
<g id="edge6" class="edge">
<title>2-&gt;5</title>
<path fill="none" stroke="#000000" d="M249.2727,-284.677C222.7717,-262.6649 185.5106,-231.7153 157.6676,-208.5886"/>
<polygon fill="#000000" stroke="#000000" points="159.6459,-205.6818 149.717,-201.9847 155.1732,-211.0666 159.6459,-205.6818"/>
<text text-anchor="middle" x="214.7582" y="-240.1801" font-family="Times,serif" font-size="14.00" fill="#000000">2</text>
</g>
<!-- 5&#45;&gt;6 -->
<g id="edge9" class="edge">
<title>5-&gt;6</title>
<path fill="none" stroke="#000000" d="M98.3986,-141.8188C88.0057,-124.4472 75.336,-103.2699 64.3103,-84.8408"/>
<polygon fill="#000000" stroke="#000000" points="67.1846,-82.8277 59.047,-76.0432 61.1776,-86.4216 67.1846,-82.8277"/>
<text text-anchor="middle" x="87.7582" y="-104.7901" font-family="Times,serif" font-size="14.00" fill="#000000">2</text>
</g>
</g>
</svg>