<?xml version="1.0" encoding="UTF-8" standalone="no"?>
<!DOCTYPE svg PUBLIC "-//W3C//DTD SVG 1.1//EN" "http://www.w3.org/Graphics/SVG/1.1/DTD/svg11.dtd">
<!-- Generated by graphviz version 2.40.1 (20161225.0304)
 -->
<!-- Title: %0 Pages: 1 -->
<svg width="323pt" height="632pt" viewBox="0.00 0.00 322.82 632.15" xmlns="http://www.w3.org/2000/svg" xmlns:xlink="http://www.w3.org/1999/xlink">
<g id="graph0" class="graph" transform="scale(1 1) rotate(0) translate(4 628.1504)">
<title>%0</title>
<polygon fill="#ffffff" stroke="transparent" points="-4,4 -4,-628.1504 318.8203,-628.1504 318.8203,4 -4,4"/>
<!-- 0 -->
<g id="node1" class="node">
<title>0</title>
<ellipse fill="none" stroke="#000000" cx="152.735" cy="-582.8553" rx="43.4168" ry="41.0911"/>
<text text-anchor="middle" x="152.735" y="-595.4553" font-family="Times,serif" font-size="14.00" fill="#000000">id:0</text>
<text text-anchor="middle" x="152.735" y="-578.6553" font-family="Times,serif" font-size="14.00" fill="#000000">disc:13</text>
<text text-anchor="middle" x="152.735" y="-561.8553" font-family="Times,serif" font-size="14.00" fill="#000000">endp:14</text>
</g>
<!-- 1 -->
<g id="node2" class="node">
<title>1</title>
<ellipse fill="none" stroke="#000000" cx="152.735" cy="-447.4653" rx="43.4168" ry="41.0911"/>
<text text-anchor="middle" x="152.735" y="-460.0653" font-family="Times,serif" font-size="14.00" fill="#000000">id:1</text>
<text text-anchor="middle" x="152.735" y="-443.2653" font-family="Times,serif" font-size="14.00" fill="#000000">disc:1</text>
<text text-anchor="middle" x="152.735" y="-426.4653" font-family="Times,serif" font-size="14.00" fill="#000000">endp:12</text>
</g>
<!-- 0&#45;&gt;1 -->
<g id="edge1" class="edge">
<title>0-&gt;1</title>
<path fill="none" stroke="#000000" d="M152.735,-541.4982C152.735,-528.1068 152.735,-513.0863 152.735,-499.0474"/>
<polygon fill="#000000" stroke="#000000" points="156.2351,-499.0356 152.735,-489.0357 149.2351,-499.0357 156.2351,-499.0356"/>
<text text-anchor="middle" x="156.235" y="-510.9603" font-family="Times,serif" font-size="14.00" fill="#000000">2</text>
</g>
<!-- 6 -->
<g id="node3" class="node">
<title>6</title>
<ellipse fill="none" stroke="#000000" cx="152.735" cy="-41.295" rx="38.0178" ry="41.0911"/>
<text text-anchor="middle" x="152.735" y="-53.895" font-family="Times,serif" font-size="14.00" fill="#000000">id:6</text>
<text text-anchor="middle" x="152.735" y="-37.095" font-family="Times,serif" font-size="14.00" fill="#000000">disc:2</text>
<text text-anchor="middle" x="152.735" y="-20.295" font-family="Times,serif" font-size="14.00" fill="#000000">endp:3</text>
</g>
<!-- 1&#45;&gt;6 -->
<g id="edge2" class="edge">
<title>1-&gt;6</title>
<path fill="none" stroke="#000000" d="M111.9991,-433.1033C78.0746,-418.7205 32.0015,-392.974 10.735,-353.3702 -6.6305,-321.0311 .6948,-306.087 10.735,-270.7801 31.9239,-196.268 84.9779,-122.2763 119.8962,-79.2158"/>
<polygon fill="#000000" stroke="#000000" points="122.768,-81.2336 126.4082,-71.2837 117.3577,-76.7919 122.768,-81.2336"/>
<text text-anchor="middle" x="29.735" y="-240.1801" font-family="Times,serif" font-size="14.00" fill="#000000">10</text>
</g>
<!-- 4 -->
<g id="node4" class="node">
<title>4</title>
<ellipse fill="none" stroke="#000000" cx="57.735" cy="-312.0752" rx="38.0178" ry="41.0911"/>
<text text-anchor="middle" x="57.735" y="-324.6752" font-family="Times,serif" font-size="14.00" fill="#000000">id:4</text>
<text text-anchor="middle" x="57.735" y="-307.8752" font-family="Times,serif" font-size="14.00" fill="#000000">disc:4</text>
<text text-anchor="middle" x="57.735" y="-291.0752" font-family="Times,serif" font-size="14.00" fill="#000000">endp:7</text>
</g>
<!-- 1&#45;&gt;4 -->
<g id="edge3" class="edge">
<title>1-&gt;4</title>
<path fill="none" stroke="#000000" d="M128.5167,-412.9503C115.7788,-394.7969 100.0734,-372.4142 86.6953,-353.3482"/>
<polygon fill="#000000" stroke="#000000" points="89.5351,-351.3018 80.9262,-345.1263 83.805,-355.3225 89.5351,-351.3018"/>
<text text-anchor="middle" x="115.235" y="-375.5702" font-family="Times,serif" font-size="14.00" fill="#000000">2</text>
</g>
<!-- 3 -->
<g id="node5" class="node">
<title>3</title>
<ellipse fill="none" stroke="#000000" cx="152.735" cy="-312.0752" rx="38.0178" ry="41.0911"/>
<text text-anchor="middle" x="152.735" y="-324.6752" font-family="Times,serif" font-size="14.00" fill="#000000">id:3</text>
<text text-anchor="middle" x="152.735" y="-307.8752" font-family="Times,serif" font-size="14.00" fill="#000000">disc:8</text>
<text text-anchor="middle" x="152.735" y="-291.0752" font-family="Times,serif" font-size="14.00" fill="#000000">endp:9</text>
</g>
<!-- 1&#45;&gt;3 -->
<g id="edge4" class="edge">
<title>1-&gt;3</title>
<path fill="none" stroke="#000000" d="M152.735,-406.1081C152.735,-392.7167 152.735,-377.6962 152.735,-363.6573"/>
<polygon fill="#000000" stroke="#000000" points="156.2351,-363.6456 152.735,-353.6456 149.2351,-363.6456 156.2351,-363.6456"/>
<text text-anchor="middle" x="156.235" y="-375.5702" font-family="Times,serif" font-size="14.00" fill="#000000">3</text>
</g>
<!-- 2 -->
<g id="node6" class="node">
<title>2</title>
<ellipse fill="none" stroke="#000000" cx="251.735" cy="-312.0752" rx="43.4168" ry="41.0911"/>
<text text-anchor="middle" x="251.735" y="-324.6752" font-family="Times,serif" font-size="14.00" fill="#000000">id:2</text>
<text text-anchor="middle" x="251.735" y="-307.8752" font-family="Times,serif" font-size="14.00" fill="#000000">disc:10</text>
<text text-anchor="middle" x="251.735" y="-291.0752" font-family="Times,serif" font-size="14.00" fill="#000000">endp:11</text>
</g>
<!-- 1&#45;&gt;2 -->
<g id="edge5" class="edge">
<title>1-&gt;2</title>
<path fill="none" stroke="#000000" d="M177.7169,-413.3006C190.7899,-395.4222 206.9154,-373.3693 220.7745,-354.416"/>
<polygon fill="#000000" stroke="#000000" points="223.6838,-356.367 226.7611,-346.2289 218.0332,-352.2352 223.6838,-356.367"/>
<text text-anchor="middle" x="212.235" y="-375.5702" font-family="Times,serif" font-size="14.00" fill="#000000">2</text>
</g>
<!-- 6&#45;&gt;1 -->
<g id="edge10" class="edge">
<title>6-&gt;1</title>
<path fill="none" stroke="#000000" d="M180.0802,-70.2659C216.6031,-111.1666 279.5163,-189.9134 303.735,-270.7801 314.2661,-305.9437 321.5506,-321.2769 303.735,-353.3702 282.4946,-391.6329 238.5146,-416.3642 203.4705,-430.8221"/>
<polygon fill="#000000" stroke="#000000" points="201.8596,-427.6955 193.8496,-434.6302 204.4359,-434.2041 201.8596,-427.6955"/>
<text text-anchor="middle" x="300.235" y="-240.1801" font-family="Times,serif" font-size="14.00" fill="#000000">1</text>
</g>
<!-- 5 -->
<g id="node7" class="node">
<title>5</title>
<ellipse fill="none" stroke="#000000" cx="152.735" cy="-176.6851" rx="38.0178" ry="41.0911"/>
<text text-anchor="middle" x="152.735" y="-189.2851" font-family="Times,serif" font-size="14.00" fill="#000000">id:5</text>
<text text-anchor="middle" x="152.735" y="-172.4851" font-family="Times,serif" font-size="14.00" fill="#000000">disc:5</text>
<text text-anchor="middle" x="152.735" y="-155.6851" font-family="Times,serif" font-size="14.00" fill="#000000">endp:6</text>
</g>
<!-- 4&#45;&gt;5 -->
<g id="edge8" class="edge">
<title>4-&gt;5</title>
<path fill="none" stroke="#000000" d="M80.9746,-278.955C93.7984,-260.6791 109.847,-237.8073 123.5135,-218.3304"/>
<polygon fill="#000000" stroke="#000000" points="126.5272,-220.1288 129.406,-209.9326 120.7971,-216.1081 126.5272,-220.1288"/>
<text text-anchor="middle" x="115.235" y="-240.1801" font-family="Times,serif" font-size="14.00" fill="#000000">1</text>
</g>
<!-- 3&#45;&gt;5 -->
<g id="edge7" class="edge">
<title>3-&gt;5</title>
<path fill="none" stroke="#000000" d="M152.735,-270.718C152.735,-257.3266 152.735,-242.3061 152.735,-228.2672"/>
<polygon fill="#000000" stroke="#000000" points="156.2351,-228.2555 152.735,-218.2555 149.2351,-228.2556 156.2351,-228.2555"/>
<text text-anchor="middle" x="156.235" y="-240.1801" font-family="Times,serif" font-size="14.00" fill="#000000">3</text>
</g>
<!-- 2&#45;&gt;5 -->
<g id="edge6" class="edge">
<title>2-&gt;5</title>
<path fill="none" stroke="#000000" d="M226.7531,-277.9105C213.3806,-259.6227 196.8143,-236.967 182.7469,-217.7287"/>
<polygon fill="#000000" stroke="#000000" points="185.4122,-215.444 176.6843,-209.4377 179.7616,-219.5758 185.4122,-215.444"/>
<text text-anchor="middle" x="212.235" y="-240.1801" font-family="Times,serif" font-size="14.00" fill="#000000">2</text>
</g>
<!-- 5&#45;&gt;6 -->
<g id="edge9" class="edge">
<title>5-&gt;6</title>
<path fill="none" stroke="#000000" d="M152.735,-135.328C152.735,-121.9366 152.735,-106.9161 152.735,-92.8772"/>
<polygon fill="#000000" stroke="#000000" points="156.2351,-92.8654 152.735,-82.8655 149.2351,-92.8655 156.2351,-92.8654"/>
<text text-anchor="middle" x="156.235" y="-104.7901" font-family="Times,serif" font-size="14.00" fill="#000000">2</text>
</g>
</g>
</svg>